#!OML:ASF F:\VICON\USERDATA\INSTALL\rory3\rory3.ASF
:FULLY-SPECIFIED
:DEGREES
257
root 0.942474 18.0812 22.0292 -4.01129 -1.26624 0.50664
lowerback 10.1649 0.240106 -1.18157
upperback 1.74022 0.242912 1.21584
thorax -3.89703 0.141148 1.89732
lowerneck -14.855 -2.63203 -1.27136
upperneck 20.4911 -3.17797 -0.746647
head 8.87326 -1.67223 -0.42099
rclavicle 1.14301e-014 5.96354e-015
rhumerus -30.0128 -16.8927 -79.1866
rradius 27.7725
rwrist 4.45759
rhand -14.7991 21.4073
rfingers 7.12502
rthumb 11.3585 -8.26513
lclavicle 1.14301e-014 5.96354e-015
lhumerus -29.4054 -3.27445 81.4467
lradius 27.8577
lwrist -1.45118
lhand -22.7272 32.5446
lfingers 7.12502
lthumb 3.70656 62.4921
rfemur -26.2769 -3.2945 21.6378
rtibia 68.4829
rfoot -7.64719 -4.99404
rtoes 3.71522
lfemur -6.25026 -4.28185 -25.1477
ltibia 33.3124
lfoot -17.8317 4.89459
ltoes -2.41615
258
root 0.943539 18.0629 22.1686 -3.76825 -1.20994 0.746871
lowerback 10.1945 0.223364 -1.43178
upperback 1.64381 0.192066 1.17973
thorax -4.01237 0.1209 2.00809
lowerneck -14.8275 -2.62975 -1.27059
upperneck 20.3663 -3.18003 -0.725272
head 8.82583 -1.67087 -0.412321
rclavicle -2.23633e-016 3.18055e-015
rhumerus -30.3071 -16.8105 -79.2062
rradius 27.6571
rwrist 4.20741
rhand -15.091 22.7356
rfingers 7.12502
rthumb 11.077 -6.9521
lclavicle -2.23633e-016 3.18055e-015
lhumerus -28.8513 -3.51301 81.15
lradius 28.1597
lwrist -1.27667
lhand -20.9826 33.1766
lfingers 7.12502
lthumb 5.39119 63.088
rfemur -27.4073 -3.30379 21.5353
rtibia 67.0449
rfoot -8.30017 -5.26204
rtoes 3.39291
lfemur -6.05032 -4.18296 -25.4742
ltibia 33.2139
lfoot -17.8801 5.10766
ltoes -2.5765
259
root 0.94032 18.0518 22.3264 -3.60372 -1.07615 0.98423
lowerback 9.94714 0.136235 -1.7663
upperback 1.70231 0.0434296 1.18161
thorax -3.80741 0.0489153 2.21769
lowerneck -14.7425 -2.62197 -1.30544
upperneck 20.0698 -3.15631 -0.748206
head 8.70924 -1.66495 -0.406939
rclavicle -2.45996e-015 7.55382e-015
rhumerus -30.4541 -16.538 -79.306
rradius 27.6823
rwrist 4.24356
rhand -15.5281 22.7422
rfingers 7.12502
rthumb 10.6553 -6.96759
lclavicle -2.45996e-015 7.55382e-015
lhumerus -28.1966 -3.88672 80.9305
lradius 28.3679
lwrist -0.317871
lhand -22.6043 31.0183
lfingers 7.12502
lthumb 3.82526 60.9637
rfemur -28.2029 -3.37753 21.4028
rtibia 65.4103
rfoot -10.0473 -5.62231
rtoes -2.16374
lfemur -5.7656 -3.92976 -25.8366
ltibia 33.0312
lfoot -17.8014 5.58357
ltoes -5.93742
260
root 0.93546 18.054 22.4862 -3.60749 -0.974721 1.23837
lowerback 9.91224 0.0638248 -2.1457
upperback 1.72622 -0.0923553 1.17723
thorax -3.75532 -0.0146876 2.44484
lowerneck -14.6127 -2.64837 -1.37589
upperneck 19.8787 -3.1897 -0.696138
head 8.6229 -1.68071 -0.377636
rclavicle -2.78299e-015 1.19271e-015
rhumerus -30.7265 -16.5015 -79.2623
rradius 27.5205
rwrist 4.36273
rhand -15.3933 22.842
rfingers 7.12502
rthumb 10.7854 -6.8611
lclavicle -2.78299e-015 1.19271e-015
lhumerus -27.7354 -3.94559 80.6275
lradius 28.5395
lwrist 0.0551858
lhand -25.6951 27.8878
lfingers 7.12502
lthumb 0.840271 57.8659
rfemur -28.7015 -3.3758 21.2183
rtibia 63.5288
rfoot -12.8316 -6.15029
rtoes -13.7369
lfemur -4.85991 -4.25299 -26.1676
ltibia 32.8428
lfoot -18.4526 5.39589
ltoes -1.71851
261
root 0.932186 18.0598 22.6309 -3.39686 -0.985479 1.33349
lowerback 10.1453 0.0830029 -2.28033
upperback 1.51693 -0.0859905 1.18209
thorax -4.10306 -0.00242014 2.52782
lowerneck -14.3429 -2.70928 -1.5337
upperneck 19.6752 -3.28769 -0.484669
head 8.51198 -1.71698 -0.285661
rclavicle -1.81143e-014 7.55382e-015
rhumerus -31.2262 -16.6689 -79.1373
rradius 27.6686
rwrist 4.24508
rhand -14.9869 22.0344
rfingers 7.12502
rthumb 11.1774 -7.64783
lclavicle -1.81143e-014 7.55382e-015
lhumerus -27.4749 -4.04856 80.3659
lradius 28.8896
lwrist -0.167597
lhand -23.4998 29.9602
lfingers 7.12502
lthumb 2.96047 59.9194
rfemur -29.3817 -3.24748 21.2229
rtibia 61.3918
rfoot -11.1966 -6.40965
rtoes -6.45781
lfemur -4.37244 -4.32589 -26.3193
ltibia 32.619
lfoot -18.7583 5.43595
ltoes -0.365619
262
root 0.927007 18.0688 22.7837 -3.19663 -1.0515 1.12846
lowerback 10.1897 0.061866 -2.16301
upperback 1.4631 -0.0968975 1.29851
thorax -4.18328 -0.00706131 2.58519
lowerneck -14.474 -2.67306 -1.56536
upperneck 19.6042 -3.23663 -0.441447
head 8.51288 -1.69041 -0.261369
rclavicle 2.31087e-015 -3.18055e-015
rhumerus -31.4516 -16.8753 -79.0764
rradius 27.7318
rwrist 4.51479
rhand -14.6108 21.4774
rfingers 7.12502
rthumb 11.5401 -8.18487
lclavicle 2.31087e-015 -3.18055e-015
lhumerus -27.0308 -4.19546 80.1372
lradius 29.3082
lwrist 0.209274
lhand -21.5773 32.037
lfingers 7.12502
lthumb 4.81695 61.9622
rfemur -29.8089 -2.97191 21.5492
rtibia 58.9934
rfoot -10.3844 -6.85992
rtoes -2.24313
lfemur -3.94994 -4.28383 -26.1503
ltibia 32.4092
lfoot -18.8041 5.57374
ltoes 0.142434
263
root 0.920166 18.072 22.944 -3.12046 -1.12364 0.801773
lowerback 10.0319 0.0138784 -1.88691
upperback 1.60584 -0.123529 1.40448
thorax -3.94551 -0.0284333 2.54121
lowerneck -14.9153 -2.65134 -1.39473
upperneck 19.7517 -3.21564 -0.55133
head 8.63771 -1.6784 -0.332203
rclavicle -8.44835e-016 -7.15625e-015
rhumerus -31.5022 -16.7513 -79.2451
rradius 27.751
rwrist 4.7079
rhand -14.8897 21.8539
rfingers 7.12502
rthumb 11.2711 -7.82326
lclavicle -8.44835e-016 -7.15625e-015
lhumerus -26.3302 -4.22303 79.7851
lradius 29.5797
lwrist 0.568434
lhand -21.6265 32.5185
lfingers 7.12502
lthumb 4.76942 62.4448
rfemur -29.9989 -2.6 21.9921
rtibia 56.4878
rfoot -10.0538 -7.32847
rtoes -2.19947
lfemur -3.28807 -4.27054 -25.8564
ltibia 32.124
lfoot -18.9174 5.87746
ltoes -0.643808
264
root 0.916834 18.0721 23.1039 -3.05902 -1.18517 0.564999
lowerback 9.90206 -0.0560174 -1.67417
upperback 1.6725 -0.187833 1.51095
thorax -3.80066 -0.0650902 2.53889
lowerneck -15.0501 -2.65621 -1.30932
upperneck 19.7665 -3.21533 -0.667813
head 8.66353 -1.68402 -0.387707
rclavicle 6.80837e-015 -6.36111e-015
rhumerus -31.6168 -16.5841 -79.3
rradius 27.6487
rwrist 4.80375
rhand -15.0554 21.9388
rfingers 7.12502
rthumb 11.1113 -7.74701
lclavicle 6.80837e-015 -6.36111e-015
lhumerus -25.8469 -4.15349 79.4778
lradius 29.9394
lwrist 0.729618
lhand -22.4143 32.1985
lfingers 7.12502
lthumb 4.00868 62.1405
rfemur -30.1277 -2.31827 22.2964
rtibia 53.9095
rfoot -9.78749 -7.66649
rtoes -3.64701
lfemur -2.57471 -4.31825 -25.6879
ltibia 31.8397
lfoot -19.0498 6.28701
ltoes -1.55442
265
root 0.913328 18.0714 23.2655 -2.9298 -1.07392 0.960642
lowerback 9.73099 -0.0910243 -2.09665
upperback 1.65191 -0.279846 1.42084
thorax -3.72011 -0.106806 2.69413
lowerneck -14.7222 -2.69781 -1.26332
upperneck 19.456 -3.28983 -0.663718
head 8.49797 -1.7159 -0.394093
rclavicle -7.55382e-015 2.38542e-015
rhumerus -31.8135 -17.1029 -79.08
rradius 27.2652
rwrist 5.17839
rhand -14.9605 22.0306
rfingers 7.12502
rthumb 11.2029 -7.65026
lclavicle -7.55382e-015 2.38542e-015
lhumerus -25.5305 -4.29926 79.2294
lradius 30.4661
lwrist 0.869195
lhand -22.9825 32.0163
lfingers 7.12502
lthumb 3.45998 61.968
rfemur -30.2836 -2.0419 21.8246
rtibia 51.2309
rfoot -9.331 -8.02923
rtoes -3.83105
lfemur -1.90224 -4.32615 -26.1805
ltibia 31.363
lfoot -19.2785 6.25172
ltoes -0.548469
266
root 0.905955 18.0624 23.4206 -2.76874 -0.9514 1.19229
lowerback 9.67003 -0.144202 -2.37709
upperback 1.62528 -0.379774 1.38607
thorax -3.70601 -0.153007 2.82866
lowerneck -14.5592 -2.71375 -1.45204
upperneck 19.2685 -3.3325 -0.371098
head 8.41427 -1.71979 -0.265492
rclavicle 6.4605e-016 -2.22639e-014
rhumerus -32.0878 -17.3092 -78.9903
rradius 27.2372
rwrist 5.3846
rhand -14.8624 21.8673
rfingers 7.12502
rthumb 11.2975 -7.80848
lclavicle 6.4605e-016 -2.22639e-014
lhumerus -25.1212 -4.46613 78.9689
lradius 30.9118
lwrist 0.91961
lhand -22.435 33.5158
lfingers 7.12502
lthumb 3.98868 63.4582
rfemur -30.3983 -1.56382 21.495
rtibia 48.3934
rfoot -8.75705 -8.53722
rtoes -3.26966
lfemur -1.28275 -4.45295 -26.475
ltibia 30.8213
lfoot -19.2714 6.25814
ltoes -0.345191
267
root 0.898796 18.082 23.5761 -2.60255 -0.871046 1.16713
lowerback 9.7536 -0.227647 -2.41509
upperback 1.57612 -0.493838 1.44467
thorax -3.79518 -0.206739 2.92726
lowerneck -14.8225 -2.702 -1.48986
upperneck 19.323 -3.32138 -0.285603
head 8.48253 -1.70773 -0.233977
rclavicle -6.95746e-016 2.38542e-015
rhumerus -32.317 -17.2432 -78.9939
rradius 27.36
rwrist 5.17095
rhand -14.6462 21.6338
rfingers 7.12502
rthumb 11.5059 -8.03037
lclavicle -6.95746e-016 2.38542e-015
lhumerus -24.5239 -4.44717 78.6879
lradius 31.1527
lwrist 0.538381
lhand -21.0276 36.4091
lfingers 7.12502
lthumb 5.34767 66.3216
rfemur -30.3221 -1.28213 21.4531
rtibia 45.2399
rfoot -7.96174 -8.95758
rtoes -3.93352
lfemur -0.642457 -4.50643 -26.4739
ltibia 30.1895
lfoot -18.9161 6.39757
ltoes -1.75823
268
root 0.891172 18.0926 23.7359 -2.48009 -0.951744 0.957405
lowerback 9.74273 -0.264159 -2.2509
upperback 1.59003 -0.52143 1.532
thorax -3.77349 -0.22262 2.92877
lowerneck -15.2306 -2.64474 -1.30548
upperneck 19.5054 -3.24935 -0.430217
head 8.61172 -1.67429 -0.312462
rclavicle -5.31749e-015 9.54166e-015
rhumerus -32.4375 -17.5415 -78.8904
rradius 27.2259
rwrist 5.3898
rhand -14.5004 21.9586
rfingers 7.12502
rthumb 11.6466 -7.69774
lclavicle -5.31749e-015 9.54166e-015
lhumerus -24.0718 -4.8253 78.5215
lradius 31.2885
lwrist 1.55623
lhand -21.5528 34.7239
lfingers 7.12502
lthumb 4.84058 64.6486
rfemur -30.1558 -0.533441 21.5408
rtibia 41.9166
rfoot -6.8594 -9.43418
rtoes -3.70258
lfemur 0.061858 -4.45147 -26.2751
ltibia 29.5397
lfoot -18.6281 6.59705
ltoes -2.91361
269
root 0.875613 18.0994 23.896 -2.26762 -1.12122 0.991513
lowerback 9.48156 -0.235575 -2.48483
upperback 1.60061 -0.500255 1.59232
thorax -3.61606 -0.211769 3.11776
lowerneck -15.3224 -2.56311 -1.12455
upperneck 19.5396 -3.14444 -0.590976
head 8.6334 -1.62835 -0.385641
rclavicle -4.72114e-015 1.59028e-015
rhumerus -32.6646 -17.5179 -78.9041
rradius 27.2204
rwrist 5.51838
rhand -14.5796 22.1469
rfingers 7.12502
rthumb 11.5702 -7.51373
lclavicle -4.72114e-015 1.59028e-015
lhumerus -23.8434 -4.82289 78.2635
lradius 31.8415
lwrist 1.7401
lhand -22.4118 32.887
lfingers 7.12502
lthumb 4.01113 62.829
rfemur -30.0191 0.477944 21.3126
rtibia 38.4329
rfoot -5.82899 -9.70056
rtoes -2.23961
lfemur 0.749024 -4.29134 -26.292
ltibia 28.7676
lfoot -18.3715 6.67192
ltoes -3.73635
270
root 0.86824 18.0998 24.0622 -2.09541 -0.985994 1.39477
lowerback 9.23886 -0.276408 -2.89622
upperback 1.58452 -0.593372 1.5097
thorax -3.4876 -0.25572 3.27233
lowerneck -15.0087 -2.57846 -1.15542
upperneck 19.3406 -3.17669 -0.524587
head 8.51085 -1.6396 -0.355258
rclavicle -4.37326e-015 1.35174e-014
rhumerus -32.8961 -17.6055 -78.8454
rradius 27.162
rwrist 5.51
rhand -14.5536 21.3888
rfingers 7.12502
rthumb 11.5953 -8.27039
lclavicle -4.37326e-015 1.35174e-014
lhumerus -23.5955 -4.92882 78.0534
lradius 32.2607
lwrist 1.81891
lhand -23.3291 31.8223
lfingers 7.12502
lthumb 3.12532 61.7792
rfemur -29.658 1.00001 20.6125
rtibia 34.9139
rfoot -5.01285 -9.68448
rtoes -2.96214
lfemur 1.46985 -4.30305 -26.7422
ltibia 28.1009
lfoot -18.2412 6.59265
ltoes -4.31611
